<svg width="105" height="245" fill="none" xmlns="http://www.w3.org/2000/svg"><g filter="url(#a)"><path fill="#2C6269" stroke="#000" stroke-opacity=".2" d="M105 145H5V45h100z"/><path fill-rule="evenodd" clip-rule="evenodd" d="M105 245c55.228 0 100-44.772 100-100S160.228 45 105 45 5 89.772 5 145s44.772 100 100 100Zm0-67c18.225 0 33-14.775 33-33s-14.775-33-33-33-33 14.775-33 33 14.775 33 33 33Z" fill="#014E56"/><path d="M204.5 145c0 54.952-44.548 99.5-99.5 99.5v1c55.505 0 100.5-44.995 100.5-100.5h-1ZM105 45.5c54.952 0 99.5 44.548 99.5 99.5h1c0-55.505-44.995-100.5-100.5-100.5v1ZM5.5 145c0-54.952 44.548-99.5 99.5-99.5v-1C49.495 44.5 4.5 89.495 4.5 145h1Zm99.5 99.5c-54.952 0-99.5-44.548-99.5-99.5h-1c0 55.505 44.995 100.5 100.5 100.5v-1Zm32.5-99.5c0 17.949-14.551 32.5-32.5 32.5v1c18.502 0 33.5-14.998 33.5-33.5h-1ZM105 112.5c17.949 0 32.5 14.551 32.5 32.5h1c0-18.502-14.998-33.5-33.5-33.5v1ZM72.5 145c0-17.949 14.55-32.5 32.5-32.5v-1c-18.501 0-33.5 14.998-33.5 33.5h1Zm32.5 32.5c-17.95 0-32.5-14.551-32.5-32.5h-1c0 18.502 14.999 33.5 33.5 33.5v-1Z" fill="#000" fill-opacity=".2"/><path fill-rule="evenodd" clip-rule="evenodd" d="M105 145H5v4h100v-4Zm0 8H5v4h100v-4ZM5 161h100v4H5v-4Zm100 8H5v4h100v-4ZM5 177h100v4H5v-4Zm100 8H5v4h100v-4Z" fill="#79C8C7"/><path d="M5 145v-.5h-.5v.5H5Zm100 0h.5v-.5h-.5v.5ZM5 149h-.5v.5H5v-.5Zm100 0v.5h.5v-.5h-.5ZM5 153v-.5h-.5v.5H5Zm100 0h.5v-.5h-.5v.5ZM5 157h-.5v.5H5v-.5Zm100 0v.5h.5v-.5h-.5Zm0 4h.5v-.5h-.5v.5ZM5 161v-.5h-.5v.5H5Zm100 4v.5h.5v-.5h-.5ZM5 165h-.5v.5H5v-.5Zm0 4v-.5h-.5v.5H5Zm100 0h.5v-.5h-.5v.5ZM5 173h-.5v.5H5v-.5Zm100 0v.5h.5v-.5h-.5Zm0 4h.5v-.5h-.5v.5ZM5 177v-.5h-.5v.5H5Zm100 4v.5h.5v-.5h-.5ZM5 181h-.5v.5H5v-.5Zm0 4v-.5h-.5v.5H5Zm100 0h.5v-.5h-.5v.5ZM5 189h-.5v.5H5v-.5Zm100 0v.5h.5v-.5h-.5ZM5 145.5h100v-1H5v1Zm.5 3.5v-4h-1v4h1Zm99.5-.5H5v1h100v-1Zm-.5-3.5v4h1v-4h-1ZM5 153.5h100v-1H5v1Zm.5 3.5v-4h-1v4h1Zm99.5-.5H5v1h100v-1Zm-.5-3.5v4h1v-4h-1Zm.5 7.5H5v1h100v-1Zm.5 4.5v-4h-1v4h1ZM5 165.5h100v-1H5v1Zm-.5-4.5v4h1v-4h-1Zm.5 8.5h100v-1H5v1Zm.5 3.5v-4h-1v4h1Zm99.5-.5H5v1h100v-1Zm-.5-3.5v4h1v-4h-1Zm.5 7.5H5v1h100v-1Zm.5 4.5v-4h-1v4h1ZM5 181.5h100v-1H5v1Zm-.5-4.5v4h1v-4h-1Zm.5 8.5h100v-1H5v1Zm.5 3.5v-4h-1v4h1Zm99.5-.5H5v1h100v-1Zm-.5-3.5v4h1v-4h-1Z" fill="#000" fill-opacity=".2"/><path fill-rule="evenodd" clip-rule="evenodd" d="M5 1h4v4H5V1Zm11 0h-4v4h4V1Zm0 8h-4v4h4V9Zm-4 8h4v4h-4v-4Zm4 8h-4v4h4v-4Zm-4 8h4v4h-4v-4Zm4 8h-4v4h4v-4Zm3-40h4v4h-4V1Zm0 8h4v4h-4V9Zm4 8h-4v4h4v-4Zm-4 8h4v4h-4v-4Zm4 8h-4v4h4v-4Zm-4 8h4v4h-4v-4ZM5 9h4v4H5V9Zm21-8h4v4h-4V1Zm0 8h4v4h-4V9Zm4 8h-4v4h4v-4Zm-4 8h4v4h-4v-4Zm4 8h-4v4h4v-4Zm-4 8h4v4h-4v-4ZM5 17h4v4H5v-4ZM33 1h4v4h-4V1Zm0 8h4v4h-4V9Zm4 8h-4v4h4v-4Zm-4 8h4v4h-4v-4Zm4 8h-4v4h4v-4Zm-4 8h4v4h-4v-4ZM5 25h4v4H5v-4ZM40 1h4v4h-4V1Zm0 8h4v4h-4V9Zm4 8h-4v4h4v-4Zm-4 8h4v4h-4v-4Zm4 8h-4v4h4v-4Zm-4 8h4v4h-4v-4ZM5 33h4v4H5v-4ZM47 1h4v4h-4V1Zm0 8h4v4h-4V9Zm4 8h-4v4h4v-4Zm-4 8h4v4h-4v-4Zm4 8h-4v4h4v-4Zm-4 8h4v4h-4v-4ZM5 41h4v4H5v-4ZM54 1h4v4h-4V1Zm0 8h4v4h-4V9Zm4 8h-4v4h4v-4Zm-4 8h4v4h-4v-4Zm4 8h-4v4h4v-4Zm-4 8h4v4h-4v-4Z" fill="#79C8C7"/><path d="M9 1h.5V.5H9V1ZM5 1V.5h-.5V1H5Zm4 4v.5h.5V5H9ZM5 5h-.5v.5H5V5Zm7-4V.5h-.5V1h.5Zm4 0h.5V.5H16V1Zm-4 4h-.5v.5h.5V5Zm4 0v.5h.5V5H16Zm-4 4v-.5h-.5V9h.5Zm4 0h.5v-.5H16V9Zm-4 4h-.5v.5h.5V13Zm4 0v.5h.5V13H16Zm0 4h.5v-.5H16v.5Zm-4 0v-.5h-.5v.5h.5Zm4 4v.5h.5V21H16Zm-4 0h-.5v.5h.5V21Zm0 4v-.5h-.5v.5h.5Zm4 0h.5v-.5H16v.5Zm-4 4h-.5v.5h.5V29Zm4 0v.5h.5V29H16Zm0 4h.5v-.5H16v.5Zm-4 0v-.5h-.5v.5h.5Zm4 4v.5h.5V37H16Zm-4 0h-.5v.5h.5V37Zm0 4v-.5h-.5v.5h.5Zm4 0h.5v-.5H16v.5Zm-4 4h-.5v.5h.5V45Zm4 0v.5h.5V45H16Zm7-44h.5V.5H23V1Zm-4 0V.5h-.5V1h.5Zm4 4v.5h.5V5H23Zm-4 0h-.5v.5h.5V5Zm4 4h.5v-.5H23V9Zm-4 0v-.5h-.5V9h.5Zm4 4v.5h.5V13H23Zm-4 0h-.5v.5h.5V13Zm0 4v-.5h-.5v.5h.5Zm4 0h.5v-.5H23v.5Zm-4 4h-.5v.5h.5V21Zm4 0v.5h.5V21H23Zm0 4h.5v-.5H23v.5Zm-4 0v-.5h-.5v.5h.5Zm4 4v.5h.5V29H23Zm-4 0h-.5v.5h.5V29Zm0 4v-.5h-.5v.5h.5Zm4 0h.5v-.5H23v.5Zm-4 4h-.5v.5h.5V37Zm4 0v.5h.5V37H23Zm0 4h.5v-.5H23v.5Zm-4 0v-.5h-.5v.5h.5Zm4 4v.5h.5V45H23Zm-4 0h-.5v.5h.5V45ZM9 9h.5v-.5H9V9ZM5 9v-.5h-.5V9H5Zm4 4v.5h.5V13H9Zm-4 0h-.5v.5H5V13ZM30 1h.5V.5H30V1Zm-4 0V.5h-.5V1h.5Zm4 4v.5h.5V5H30Zm-4 0h-.5v.5h.5V5Zm4 4h.5v-.5H30V9Zm-4 0v-.5h-.5V9h.5Zm4 4v.5h.5V13H30Zm-4 0h-.5v.5h.5V13Zm0 4v-.5h-.5v.5h.5Zm4 0h.5v-.5H30v.5Zm-4 4h-.5v.5h.5V21Zm4 0v.5h.5V21H30Zm0 4h.5v-.5H30v.5Zm-4 0v-.5h-.5v.5h.5Zm4 4v.5h.5V29H30Zm-4 0h-.5v.5h.5V29Zm0 4v-.5h-.5v.5h.5Zm4 0h.5v-.5H30v.5Zm-4 4h-.5v.5h.5V37Zm4 0v.5h.5V37H30Zm0 4h.5v-.5H30v.5Zm-4 0v-.5h-.5v.5h.5Zm4 4v.5h.5V45H30Zm-4 0h-.5v.5h.5V45ZM9 17h.5v-.5H9v.5Zm-4 0v-.5h-.5v.5H5Zm4 4v.5h.5V21H9Zm-4 0h-.5v.5H5V21ZM37 1h.5V.5H37V1Zm-4 0V.5h-.5V1h.5Zm4 4v.5h.5V5H37Zm-4 0h-.5v.5h.5V5Zm4 4h.5v-.5H37V9Zm-4 0v-.5h-.5V9h.5Zm4 4v.5h.5V13H37Zm-4 0h-.5v.5h.5V13Zm0 4v-.5h-.5v.5h.5Zm4 0h.5v-.5H37v.5Zm-4 4h-.5v.5h.5V21Zm4 0v.5h.5V21H37Zm0 4h.5v-.5H37v.5Zm-4 0v-.5h-.5v.5h.5Zm4 4v.5h.5V29H37Zm-4 0h-.5v.5h.5V29Zm0 4v-.5h-.5v.5h.5Zm4 0h.5v-.5H37v.5Zm-4 4h-.5v.5h.5V37Zm4 0v.5h.5V37H37Zm0 4h.5v-.5H37v.5Zm-4 0v-.5h-.5v.5h.5Zm4 4v.5h.5V45H37Zm-4 0h-.5v.5h.5V45ZM9 25h.5v-.5H9v.5Zm-4 0v-.5h-.5v.5H5Zm4 4v.5h.5V29H9Zm-4 0h-.5v.5H5V29ZM44 1h.5V.5H44V1Zm-4 0V.5h-.5V1h.5Zm4 4v.5h.5V5H44Zm-4 0h-.5v.5h.5V5Zm4 4h.5v-.5H44V9Zm-4 0v-.5h-.5V9h.5Zm4 4v.5h.5V13H44Zm-4 0h-.5v.5h.5V13Zm0 4v-.5h-.5v.5h.5Zm4 0h.5v-.5H44v.5Zm-4 4h-.5v.5h.5V21Zm4 0v.5h.5V21H44Zm0 4h.5v-.5H44v.5Zm-4 0v-.5h-.5v.5h.5Zm4 4v.5h.5V29H44Zm-4 0h-.5v.5h.5V29Zm0 4v-.5h-.5v.5h.5Zm4 0h.5v-.5H44v.5Zm-4 4h-.5v.5h.5V37Zm4 0v.5h.5V37H44Zm0 4h.5v-.5H44v.5Zm-4 0v-.5h-.5v.5h.5Zm4 4v.5h.5V45H44Zm-4 0h-.5v.5h.5V45ZM9 33h.5v-.5H9v.5Zm-4 0v-.5h-.5v.5H5Zm4 4v.5h.5V37H9Zm-4 0h-.5v.5H5V37ZM51 1h.5V.5H51V1Zm-4 0V.5h-.5V1h.5Zm4 4v.5h.5V5H51Zm-4 0h-.5v.5h.5V5Zm4 4h.5v-.5H51V9Zm-4 0v-.5h-.5V9h.5Zm4 4v.5h.5V13H51Zm-4 0h-.5v.5h.5V13Zm0 4v-.5h-.5v.5h.5Zm4 0h.5v-.5H51v.5Zm-4 4h-.5v.5h.5V21Zm4 0v.5h.5V21H51Zm0 4h.5v-.5H51v.5Zm-4 0v-.5h-.5v.5h.5Zm4 4v.5h.5V29H51Zm-4 0h-.5v.5h.5V29Zm0 4v-.5h-.5v.5h.5Zm4 0h.5v-.5H51v.5Zm-4 4h-.5v.5h.5V37Zm4 0v.5h.5V37H51Zm0 4h.5v-.5H51v.5Zm-4 0v-.5h-.5v.5h.5Zm4 4v.5h.5V45H51Zm-4 0h-.5v.5h.5V45ZM9 41h.5v-.5H9v.5Zm-4 0v-.5h-.5v.5H5Zm4 4v.5h.5V45H9Zm-4 0h-.5v.5H5V45ZM58 1h.5V.5H58V1Zm-4 0V.5h-.5V1h.5Zm4 4v.5h.5V5H58Zm-4 0h-.5v.5h.5V5Zm4 4h.5v-.5H58V9Zm-4 0v-.5h-.5V9h.5Zm4 4v.5h.5V13H58Zm-4 0h-.5v.5h.5V13Zm0 4v-.5h-.5v.5h.5Zm4 0h.5v-.5H58v.5Zm-4 4h-.5v.5h.5V21Zm4 0v.5h.5V21H58Zm0 4h.5v-.5H58v.5Zm-4 0v-.5h-.5v.5h.5Zm4 4v.5h.5V29H58Zm-4 0h-.5v.5h.5V29Zm0 4v-.5h-.5v.5h.5Zm4 0h.5v-.5H58v.5Zm-4 4h-.5v.5h.5V37Zm4 0v.5h.5V37H58Zm0 4h.5v-.5H58v.5Zm-4 0v-.5h-.5v.5h.5Zm4 4v.5h.5V45H58Zm-4 0h-.5v.5h.5V45ZM9 .5H5v1h4v-1ZM9.5 5V1h-1v4h1ZM5 5.5h4v-1H5v1ZM4.5 1v4h1V1h-1Zm7.5.5h4v-1h-4v1Zm.5 3.5V1h-1v4h1Zm3.5-.5h-4v1h4v-1ZM15.5 1v4h1V1h-1ZM12 9.5h4v-1h-4v1Zm.5 3.5V9h-1v4h1Zm3.5-.5h-4v1h4v-1ZM15.5 9v4h1V9h-1Zm.5 7.5h-4v1h4v-1Zm.5 4.5v-4h-1v4h1Zm-4.5.5h4v-1h-4v1Zm-.5-4.5v4h1v-4h-1Zm.5 8.5h4v-1h-4v1Zm.5 3.5v-4h-1v4h1Zm3.5-.5h-4v1h4v-1Zm-.5-3.5v4h1v-4h-1Zm.5 7.5h-4v1h4v-1Zm.5 4.5v-4h-1v4h1Zm-4.5.5h4v-1h-4v1Zm-.5-4.5v4h1v-4h-1Zm.5 8.5h4v-1h-4v1Zm.5 3.5v-4h-1v4h1Zm3.5-.5h-4v1h4v-1Zm-.5-3.5v4h1v-4h-1ZM23 .5h-4v1h4v-1Zm.5 4.5V1h-1v4h1Zm-4.5.5h4v-1h-4v1ZM18.5 1v4h1V1h-1ZM23 8.5h-4v1h4v-1Zm.5 4.5V9h-1v4h1Zm-4.5.5h4v-1h-4v1ZM18.5 9v4h1V9h-1Zm.5 8.5h4v-1h-4v1Zm.5 3.5v-4h-1v4h1Zm3.5-.5h-4v1h4v-1Zm-.5-3.5v4h1v-4h-1Zm.5 7.5h-4v1h4v-1Zm.5 4.5v-4h-1v4h1Zm-4.5.5h4v-1h-4v1Zm-.5-4.5v4h1v-4h-1Zm.5 8.5h4v-1h-4v1Zm.5 3.5v-4h-1v4h1Zm3.5-.5h-4v1h4v-1Zm-.5-3.5v4h1v-4h-1Zm.5 7.5h-4v1h4v-1Zm.5 4.5v-4h-1v4h1Zm-4.5.5h4v-1h-4v1Zm-.5-4.5v4h1v-4h-1ZM9 8.5H5v1h4v-1Zm.5 4.5V9h-1v4h1Zm-4.5.5h4v-1H5v1ZM4.5 9v4h1V9h-1ZM30 .5h-4v1h4v-1Zm.5 4.5V1h-1v4h1Zm-4.5.5h4v-1h-4v1ZM25.5 1v4h1V1h-1ZM30 8.5h-4v1h4v-1Zm.5 4.5V9h-1v4h1Zm-4.5.5h4v-1h-4v1ZM25.5 9v4h1V9h-1Zm.5 8.5h4v-1h-4v1Zm.5 3.5v-4h-1v4h1Zm3.5-.5h-4v1h4v-1Zm-.5-3.5v4h1v-4h-1Zm.5 7.5h-4v1h4v-1Zm.5 4.5v-4h-1v4h1Zm-4.5.5h4v-1h-4v1Zm-.5-4.5v4h1v-4h-1Zm.5 8.5h4v-1h-4v1Zm.5 3.5v-4h-1v4h1Zm3.5-.5h-4v1h4v-1Zm-.5-3.5v4h1v-4h-1Zm.5 7.5h-4v1h4v-1Zm.5 4.5v-4h-1v4h1Zm-4.5.5h4v-1h-4v1Zm-.5-4.5v4h1v-4h-1ZM9 16.5H5v1h4v-1Zm.5 4.5v-4h-1v4h1Zm-4.5.5h4v-1H5v1ZM4.5 17v4h1v-4h-1ZM37 .5h-4v1h4v-1Zm.5 4.5V1h-1v4h1Zm-4.5.5h4v-1h-4v1ZM32.5 1v4h1V1h-1ZM37 8.5h-4v1h4v-1Zm.5 4.5V9h-1v4h1Zm-4.5.5h4v-1h-4v1ZM32.5 9v4h1V9h-1Zm.5 8.5h4v-1h-4v1Zm.5 3.5v-4h-1v4h1Zm3.5-.5h-4v1h4v-1Zm-.5-3.5v4h1v-4h-1Zm.5 7.5h-4v1h4v-1Zm.5 4.5v-4h-1v4h1Zm-4.5.5h4v-1h-4v1Zm-.5-4.5v4h1v-4h-1Zm.5 8.5h4v-1h-4v1Zm.5 3.5v-4h-1v4h1Zm3.5-.5h-4v1h4v-1Zm-.5-3.5v4h1v-4h-1Zm.5 7.5h-4v1h4v-1Zm.5 4.5v-4h-1v4h1Zm-4.5.5h4v-1h-4v1Zm-.5-4.5v4h1v-4h-1ZM9 24.5H5v1h4v-1Zm.5 4.5v-4h-1v4h1Zm-4.5.5h4v-1H5v1ZM4.5 25v4h1v-4h-1ZM44 .5h-4v1h4v-1Zm.5 4.5V1h-1v4h1Zm-4.5.5h4v-1h-4v1ZM39.5 1v4h1V1h-1ZM44 8.5h-4v1h4v-1Zm.5 4.5V9h-1v4h1Zm-4.5.5h4v-1h-4v1ZM39.5 9v4h1V9h-1Zm.5 8.5h4v-1h-4v1Zm.5 3.5v-4h-1v4h1Zm3.5-.5h-4v1h4v-1Zm-.5-3.5v4h1v-4h-1Zm.5 7.5h-4v1h4v-1Zm.5 4.5v-4h-1v4h1Zm-4.5.5h4v-1h-4v1Zm-.5-4.5v4h1v-4h-1Zm.5 8.5h4v-1h-4v1Zm.5 3.5v-4h-1v4h1Zm3.5-.5h-4v1h4v-1Zm-.5-3.5v4h1v-4h-1Zm.5 7.5h-4v1h4v-1Zm.5 4.5v-4h-1v4h1Zm-4.5.5h4v-1h-4v1Zm-.5-4.5v4h1v-4h-1ZM9 32.5H5v1h4v-1Zm.5 4.5v-4h-1v4h1Zm-4.5.5h4v-1H5v1ZM4.5 33v4h1v-4h-1ZM51 .5h-4v1h4v-1Zm.5 4.5V1h-1v4h1Zm-4.5.5h4v-1h-4v1ZM46.5 1v4h1V1h-1ZM51 8.5h-4v1h4v-1Zm.5 4.5V9h-1v4h1Zm-4.5.5h4v-1h-4v1ZM46.5 9v4h1V9h-1Zm.5 8.5h4v-1h-4v1Zm.5 3.5v-4h-1v4h1Zm3.5-.5h-4v1h4v-1Zm-.5-3.5v4h1v-4h-1Zm.5 7.5h-4v1h4v-1Zm.5 4.5v-4h-1v4h1Zm-4.5.5h4v-1h-4v1Zm-.5-4.5v4h1v-4h-1Zm.5 8.5h4v-1h-4v1Zm.5 3.5v-4h-1v4h1Zm3.5-.5h-4v1h4v-1Zm-.5-3.5v4h1v-4h-1Zm.5 7.5h-4v1h4v-1Zm.5 4.5v-4h-1v4h1Zm-4.5.5h4v-1h-4v1Zm-.5-4.5v4h1v-4h-1ZM9 40.5H5v1h4v-1Zm.5 4.5v-4h-1v4h1Zm-4.5.5h4v-1H5v1ZM4.5 41v4h1v-4h-1ZM58 .5h-4v1h4v-1Zm.5 4.5V1h-1v4h1Zm-4.5.5h4v-1h-4v1ZM53.5 1v4h1V1h-1ZM58 8.5h-4v1h4v-1Zm.5 4.5V9h-1v4h1Zm-4.5.5h4v-1h-4v1ZM53.5 9v4h1V9h-1Zm.5 8.5h4v-1h-4v1Zm.5 3.5v-4h-1v4h1Zm3.5-.5h-4v1h4v-1Zm-.5-3.5v4h1v-4h-1Zm.5 7.5h-4v1h4v-1Zm.5 4.5v-4h-1v4h1Zm-4.5.5h4v-1h-4v1Zm-.5-4.5v4h1v-4h-1Zm.5 8.5h4v-1h-4v1Zm.5 3.5v-4h-1v4h1Zm3.5-.5h-4v1h4v-1Zm-.5-3.5v4h1v-4h-1Zm.5 7.5h-4v1h4v-1Zm.5 4.5v-4h-1v4h1Zm-4.5.5h4v-1h-4v1Zm-.5-4.5v4h1v-4h-1Z" fill="#000" fill-opacity=".2"/></g><defs><filter id="a" x=".5" y=".5" width="209" height="253" filterUnits="userSpaceOnUse" color-interpolation-filters="sRGB"><feFlood flood-opacity="0" result="BackgroundImageFix"/><feColorMatrix in="SourceAlpha" values="0 0 0 0 0 0 0 0 0 0 0 0 0 0 0 0 0 0 127 0" result="hardAlpha"/><feOffset dy="4"/><feGaussianBlur stdDeviation="2"/><feComposite in2="hardAlpha" operator="out"/><feColorMatrix values="0 0 0 0 0 0 0 0 0 0 0 0 0 0 0 0 0 0 0.25 0"/><feBlend in2="BackgroundImageFix" result="effect1_dropShadow_0_4230"/><feBlend in="SourceGraphic" in2="effect1_dropShadow_0_4230" result="shape"/></filter></defs></svg>